<?xml version="1.0" encoding="UTF-8"?>
<svg version="1.1" xmlns="http://www.w3.org/2000/svg" width="192" height="192">
<path d="M0 0 C17.22012073 14.73997241 28.14550318 35.77018134 30.4375 58.375 C30.77893861 63.45640991 30.44209933 68.15683777 29.6875 73.1875 C28.3675 73.1875 27.0475 73.1875 25.6875 73.1875 C25.52894531 72.0015625 25.37039062 70.815625 25.20703125 69.59375 C21.77004572 45.19495752 14.03386986 21.67256844 -5.3125 5.1875 C-15.47987633 -2.27680867 -27.71552303 -6.29879349 -40.3125 -6.8125 C-41.18390625 -6.85246094 -42.0553125 -6.89242187 -42.953125 -6.93359375 C-60.02337099 -7.33889289 -73.76052515 -1.01196244 -86.3125 10.1875 C-98.92359547 22.75606227 -106.14115496 41.39416524 -106.5 59 C-106.33416249 73.79639093 -101.53136245 85.14097693 -91.64453125 96.0234375 C-80.9073375 106.49990469 -65.78162466 111.62102543 -51.09204102 111.55102539 C-40.45463336 111.30642481 -33.11622613 107.31397969 -25.3125 100.1875 C-19.54386186 94.1435092 -18.9633124 90.15421557 -19.03125 81.8828125 C-19.51350709 75.54649023 -21.22969713 70.44386978 -25.5625 65.75 C-34.87660682 60.45789385 -44.18097019 59.65910817 -54.625 62.25 C-61.22169438 64.53842981 -65.77957382 68.60068707 -69.3125 74.5625 C-70.87579963 80.22946116 -71.05222057 84.88131233 -69.25 90.5 C-66.04668892 94.94330247 -61.6935802 97.13976605 -56.3125 98.1875 C-54.7728597 98.27683067 -53.229721 98.31765793 -51.6875 98.3125 C-50.91148438 98.31507813 -50.13546875 98.31765625 -49.3359375 98.3203125 C-47.24290752 98.31423369 -47.24290752 98.31423369 -45.3125 97.1875 C-46.01375 97.16171875 -46.715 97.1359375 -47.4375 97.109375 C-55.24199405 96.64280199 -60.37656628 94.91237719 -66.75 90.5 C-69.16526622 86.925406 -69.60324039 83.45914723 -69.3125 79.1875 C-66.39834135 72.72566995 -60.5476368 68.61096019 -54.1875 65.8125 C-43.97652621 64.16556874 -34.97262529 63.99230601 -26.3125 70.1875 C-21.87665157 73.72149745 -20.26046311 78.13131315 -19.40625 83.6015625 C-19.19023289 89.56003441 -21.35725672 94.3167051 -25 98.9375 C-32.20356198 106.60237383 -41.34821841 110.25874008 -51.75 110.625 C-61.39662296 110.36640754 -69.27575126 106.75408735 -76.3125 100.1875 C-82.32741738 93.40732595 -83.86339654 86.47503107 -83.6796875 77.50390625 C-82.73312053 68.95459393 -78.20980427 63.23973808 -71.72265625 57.87890625 C-62.08452014 51.11502791 -51.80296595 50.22051972 -40.3125 51.1875 C-29.79943886 53.05530274 -20.78830531 56.66092909 -13.875 65 C-9.36353077 71.61682154 -8.76838534 78.46368762 -9.7109375 86.2890625 C-11.51650481 94.98861407 -15.47768026 102.54787753 -21.3125 109.1875 C-21.83585937 109.80367188 -22.35921875 110.41984375 -22.8984375 111.0546875 C-27.35875065 115.9338094 -32.33202317 118.51281438 -38.3125 121.1875 C-39.64899492 121.84780564 -40.98347144 122.51229239 -42.3125 123.1875 C-40.8275 124.1775 -40.8275 124.1775 -39.3125 125.1875 C-38.09559394 129.83386861 -38.23030961 134.42045736 -38.3125 139.1875 C-37.3225 139.5175 -36.3325 139.8475 -35.3125 140.1875 C-36.1875 145.0625 -36.1875 145.0625 -37.3125 146.1875 C-38.97679051 146.28573937 -40.64531931 146.31723631 -42.3125 146.3125 C-43.22 146.31507813 -44.1275 146.31765625 -45.0625 146.3203125 C-47.3125 146.1875 -47.3125 146.1875 -48.3125 145.1875 C-48.35313832 143.52132885 -48.355221 141.85361905 -48.3125 140.1875 C-48.97636719 140.17332031 -49.64023438 140.15914062 -50.32421875 140.14453125 C-54.9098305 139.89684127 -57.59794722 139.71247755 -61.375 136.9375 C-63.30202988 134.20236081 -64.02947192 132.48949431 -64.3125 129.1875 C-65.67375 130.363125 -65.67375 130.363125 -67.0625 131.5625 C-68.47786285 132.77236027 -69.8947684 133.98041633 -71.3125 135.1875 C-72.30121094 136.03054687 -73.28992188 136.87359375 -74.30859375 137.7421875 C-75.37206352 138.64101833 -76.43586676 139.53945475 -77.5 140.4375 C-78.50417969 141.28828125 -79.50835937 142.1390625 -80.54296875 143.015625 C-85.28275827 146.73258265 -88.19949577 147.73330395 -94.3125 147.1875 C-96.75 145.9375 -96.75 145.9375 -98.3125 144.1875 C-98.3125 142.8675 -98.3125 141.5475 -98.3125 140.1875 C-93.8575 138.2075 -93.8575 138.2075 -89.3125 136.1875 C-89.9725 131.8975 -90.6325 127.6075 -91.3125 123.1875 C-94.42427882 122.15024039 -95.39984761 122.25282647 -98.5 122.8125 C-103.55664505 123.48395615 -106.71430334 122.27758939 -111.3125 120.1875 C-111.126875 120.97125 -110.94125 121.755 -110.75 122.5625 C-110.3125 125.1875 -110.3125 125.1875 -111.3125 127.1875 C-114.28094435 127.54088623 -116.46848218 127.7292682 -119.046875 126.07421875 C-120.51598819 124.83246832 -121.91954814 123.51412082 -123.3125 122.1875 C-122.86728384 117.30829429 -120.40486038 114.38328278 -117.375 110.75 C-113.99748633 106.69411725 -111.69032964 103.40750599 -110.3125 98.1875 C-106.63263404 97.983063 -104.52889654 98.44184889 -101.3125 100.1875 C-101.90417969 99.46046875 -102.49585937 98.7334375 -103.10546875 97.984375 C-115.57871777 82.11303041 -118.73622361 66.05999814 -117.3125 46.1875 C-115.53640055 31.40576906 -108.47741579 16.07535161 -98.3125 5.1875 C-97.69375 4.51589844 -97.075 3.84429687 -96.4375 3.15234375 C-71.17119934 -21.68328133 -27.19520112 -20.71019162 0 0 Z M-56.3125 76.1875 C-58.60242684 79.00282057 -58.60242684 79.00282057 -58.25 82.1875 C-57.55664146 85.29202015 -57.55664146 85.29202015 -55.1875 87.125 C-51.44726175 88.50726196 -49.14605378 88.18138431 -45.3125 87.1875 C-43.38966915 85.77158173 -43.38966915 85.77158173 -42.3125 84.1875 C-42.9725 83.1975 -43.6325 82.2075 -44.3125 81.1875 C-48.95158179 80.56895576 -51.53231549 81.51913446 -55.3125 84.1875 C-52.5625 78.3125 -52.5625 78.3125 -50.3125 77.1875 C-48.69084248 77.06601695 -47.06365673 77.01206348 -45.4375 77 C-44.14199219 76.97873047 -44.14199219 76.97873047 -42.8203125 76.95703125 C-40.15527639 77.2019489 -38.57187353 77.78166758 -36.3125 79.1875 C-33.76998579 82.61989419 -34.15336459 86.04997946 -34.3125 90.1875 C-31.90581253 88.19635386 -31.90581253 88.19635386 -31.875 84.3125 C-31.97860118 81.12964162 -32.12336122 80.41324629 -34.25 77.875 C-42.24871559 73.46754447 -47.87313262 72.04453783 -56.3125 76.1875 Z M-92.3125 108.1875 C-91.6525 110.8275 -90.9925 113.4675 -90.3125 116.1875 C-86.3525 117.1775 -86.3525 117.1775 -82.3125 118.1875 C-81.6525 121.8175 -80.9925 125.4475 -80.3125 129.1875 C-76.39836144 127.53125914 -76.39836144 127.53125914 -74.4375 125.125 C-71.78710546 122.7084638 -69.82587538 122.50689776 -66.3125 122.1875 C-70.38641283 119.47155811 -74.76904944 117.43783115 -79.15625 115.28515625 C-83.63986081 113.06863436 -87.9927008 110.70926759 -92.3125 108.1875 Z M-103.3125 109.1875 C-104.7975 111.6625 -104.7975 111.6625 -106.3125 114.1875 C-103.3425 114.6825 -103.3425 114.6825 -100.3125 115.1875 C-100.65694881 112.71483235 -100.65694881 112.71483235 -101.3125 110.1875 C-101.9725 109.8575 -102.6325 109.5275 -103.3125 109.1875 Z M-65.3125 122.1875 C-64.9825 122.8475 -64.6525 123.5075 -64.3125 124.1875 C-63.3225 123.8575 -62.3325 123.5275 -61.3125 123.1875 C-62.6325 122.8575 -63.9525 122.5275 -65.3125 122.1875 Z M-57.3125 123.1875 C-55.8275 124.1775 -55.8275 124.1775 -54.3125 125.1875 C-53.625 128.8125 -53.625 128.8125 -53.3125 132.1875 C-51.6625 132.1875 -50.0125 132.1875 -48.3125 132.1875 C-48.18875 131.07375 -48.065 129.96 -47.9375 128.8125 C-47.3125 125.1875 -47.3125 125.1875 -45.3125 123.1875 C-49.2725 123.1875 -53.2325 123.1875 -57.3125 123.1875 Z " fill="#F9A018" transform="translate(142.3125,41.8125)"/>
<path d="M0 0 C0.474375 0.45375 0.94875 0.9075 1.4375 1.375 C2.0975 0.715 2.7575 0.055 3.4375 -0.625 C9.32796371 -0.42188056 14.59120761 0.87020002 19.4375 4.375 C19.7675 5.365 20.0975 6.355 20.4375 7.375 C21.51 7.148125 22.5825 6.92125 23.6875 6.6875 C27.4375 6.375 27.4375 6.375 29.875 7.8125 C30.390625 8.328125 30.90625 8.84375 31.4375 9.375 C31.1075 11.355 30.7775 13.335 30.4375 15.375 C31.200625 15.601875 31.96375 15.82875 32.75 16.0625 C35.98486301 17.64231682 36.85391358 19.20782717 38.4375 22.375 C38.4375 20.395 38.4375 18.415 38.4375 16.375 C44.80239607 16.85536952 44.80239607 16.85536952 47.5 19.0625 C48.4375 21.375 48.4375 21.375 47.75 24.375 C47.0215509 26.04002652 46.27103873 27.69751871 45.4375 29.3125 C44.02663086 32.2224176 43.27620931 35.25979399 42.4375 38.375 C36.6875 36.75 36.6875 36.75 34.4375 33.375 C34.4375 32.385 34.4375 31.395 34.4375 30.375 C33.2309375 30.5296875 33.2309375 30.5296875 32 30.6875 C27.16794335 30.26363538 23.23235331 28.41088265 19.4375 25.375 C18.67578125 23.203125 18.67578125 23.203125 18.4375 21.375 C16.9834375 21.7153125 16.9834375 21.7153125 15.5 22.0625 C10.73349832 22.78528919 6.81474145 21.13185201 2.4375 19.375 C1.4375 14.625 1.4375 14.625 1.4375 12.375 C0.81875 13.014375 0.2 13.65375 -0.4375 14.3125 C-4.14563896 17.91157605 -7.09760889 17.63818316 -12.07421875 17.609375 C-15.18008902 17.31682835 -17.1382777 16.31437784 -19.5625 14.375 C-20.0575 15.86 -20.0575 15.86 -20.5625 17.375 C-25.97788462 17.74423077 -25.97788462 17.74423077 -28.9375 15.875 C-29.47375 15.38 -30.01 14.885 -30.5625 14.375 C-31.5525 16.025 -32.5425 17.675 -33.5625 19.375 C-35.2125 19.045 -36.8625 18.715 -38.5625 18.375 C-39.67951114 15.2473688 -40.56569618 12.35382528 -41.0625 9.0625 C-41.2275 8.175625 -41.3925 7.28875 -41.5625 6.375 C-42.5525 5.88 -42.5525 5.88 -43.5625 5.375 C-43.8409375 6.303125 -43.8409375 6.303125 -44.125 7.25 C-46.27687233 10.43102866 -48.93783763 10.56951947 -52.5625 11.375 C-52.8925 12.695 -53.2225 14.015 -53.5625 15.375 C-49.6025 15.045 -45.6425 14.715 -41.5625 14.375 C-41.5625 16.025 -41.5625 17.675 -41.5625 19.375 C-45.6252657 22.94230646 -49.18934548 24.17961256 -54.5625 24.375 C-57.5 23.4375 -57.5 23.4375 -59.5625 22.375 C-59.89121094 23.15423828 -59.89121094 23.15423828 -60.2265625 23.94921875 C-62.58740141 29.14114497 -64.88521109 32.09094609 -69.5625 35.375 C-72.31328884 36.29192961 -73.92198913 36.48386083 -76.75 36.4375 C-78.008125 36.416875 -79.26625 36.39625 -80.5625 36.375 C-80.7275 37.65375 -80.8925 38.9325 -81.0625 40.25 C-82.40694707 46.43249381 -86.14668392 50.96792811 -90.5625 55.375 C-92.0475 55.87 -92.0475 55.87 -93.5625 56.375 C-96.47053371 53.63313965 -98.86096754 51.02823815 -101.0625 47.6875 C-103.15676438 44.62920916 -104.87859916 43.32228879 -108.5625 42.375 C-108.11847798 37.30574858 -106.77065864 34.8804012 -103.3125 31.1875 C-102.16007812 29.92873047 -102.16007812 29.92873047 -100.984375 28.64453125 C-98.61670993 26.42579995 -96.45751723 24.82966269 -93.5625 23.375 C-90.875 23.5 -90.875 23.5 -88.5625 24.375 C-86.5625 27.375 -86.5625 27.375 -86.5625 31.375 C-85.9025 31.375 -85.2425 31.375 -84.5625 31.375 C-84.48773438 30.73433594 -84.41296875 30.09367187 -84.3359375 29.43359375 C-83.3539859 22.97389251 -81.63166027 18.64376654 -76.5625 14.375 C-72.80611369 12.14789349 -69.92745282 12.06321766 -65.5625 12.375 C-63.125 13.375 -63.125 13.375 -61.5625 14.375 C-61.500625 13.653125 -61.43875 12.93125 -61.375 12.1875 C-60.1458591 7.93278148 -57.62422319 5.57421259 -53.81640625 3.359375 C-50.2495205 1.67181615 -48.2777814 1.31349103 -44.5625 2.375 C-44.10875 1.92125 -43.655 1.4675 -43.1875 1 C-40.8631007 -1.3243993 -38.76667196 -1.35230451 -35.5625 -1.625 C-34.5725 -1.13 -34.5725 -1.13 -33.5625 -0.625 C-33.0675 0.86 -33.0675 0.86 -32.5625 2.375 C-31.510625 1.1375 -31.510625 1.1375 -30.4375 -0.125 C-27.5625 -2.625 -27.5625 -2.625 -24.375 -3.125 C-23.446875 -2.96 -22.51875 -2.795 -21.5625 -2.625 C-20.5725 -1.14 -20.5725 -1.14 -19.5625 0.375 C-18.985 -0.099375 -18.4075 -0.57375 -17.8125 -1.0625 C-12.17284197 -4.97892919 -5.56786107 -3.53083873 0 0 Z M-21.5625 1.375 C-23.25338222 3.35456942 -24.92080472 5.35445196 -26.5625 7.375 C-25.18764468 8.91666642 -25.18764468 8.91666642 -23.5625 10.375 C-22.9025 10.375 -22.2425 10.375 -21.5625 10.375 C-21.2325 7.405 -20.9025 4.435 -20.5625 1.375 C-20.8925 1.375 -21.2225 1.375 -21.5625 1.375 Z M-11.5625 3.375 C-13.3979799 4.70878575 -13.3979799 4.70878575 -14.5625 6.375 C-13.92270151 8.40741727 -13.92270151 8.40741727 -12.5625 10.375 C-10.10963404 11.36577298 -10.10963404 11.36577298 -7.5625 11.375 C-6.9025 10.715 -6.2425 10.055 -5.5625 9.375 C-5.88291397 6.77219432 -5.88291397 6.77219432 -6.5625 4.375 C-8.90783951 3.60543864 -8.90783951 3.60543864 -11.5625 3.375 Z M2.4375 5.375 C3.4375 7.375 3.4375 7.375 3.4375 7.375 Z M21.4375 11.375 C20.4475 12.86 20.4475 12.86 19.4375 14.375 C20.4275 15.86 20.4275 15.86 21.4375 17.375 C21.7675 15.395 22.0975 13.415 22.4375 11.375 C22.1075 11.375 21.7775 11.375 21.4375 11.375 Z M9.4375 13.375 C9.4375 14.035 9.4375 14.695 9.4375 15.375 C10.4275 15.045 11.4175 14.715 12.4375 14.375 C11.4475 14.045 10.4575 13.715 9.4375 13.375 Z M19.4375 18.375 C20.4375 20.375 20.4375 20.375 20.4375 20.375 Z M-75.4375 22.125 C-76.78949219 24.29835329 -76.78949219 24.29835329 -76.25 26.625 C-76.023125 27.2025 -75.79625 27.78 -75.5625 28.375 C-72.61522465 28.27330839 -72.61522465 28.27330839 -69.5625 27.375 C-68.00400449 25.02153258 -68.00400449 25.02153258 -67.5625 22.375 C-67.8925 21.715 -68.2225 21.055 -68.5625 20.375 C-72.39242756 19.95819287 -72.39242756 19.95819287 -75.4375 22.125 Z M-95.5625 32.375 C-96.2225 33.695 -96.8825 35.015 -97.5625 36.375 C-96.5725 36.045 -95.5825 35.715 -94.5625 35.375 C-94.8925 34.385 -95.2225 33.395 -95.5625 32.375 Z M-89.5625 39.375 C-90.5525 40.035 -91.5425 40.695 -92.5625 41.375 C-92.2325 42.695 -91.9025 44.015 -91.5625 45.375 C-90.5725 44.715 -89.5825 44.055 -88.5625 43.375 C-88.8925 42.055 -89.2225 40.735 -89.5625 39.375 Z " fill="#F9A924" transform="translate(114.5625,6.625)"/>
<path d="M0 0 C3.74354708 -0.5672041 5.61436727 0.20837659 8.5625 2.375 C9.15804687 2.8390625 9.75359375 3.303125 10.3671875 3.78125 C11.99937976 5.10875922 11.99937976 5.10875922 14.1875 5.875 C17.17208062 7.72749832 18.72202103 10.77786153 20 14 C20 15.32 20 16.64 20 18 C20.928125 18.103125 21.85625 18.20625 22.8125 18.3125 C26.17661785 19.03809405 26.97396601 19.36144411 29 22 C29.51171875 24.26171875 29.51171875 24.26171875 29.6875 26.6875 C29.78611328 27.89986328 29.78611328 27.89986328 29.88671875 29.13671875 C29.94279297 30.05904297 29.94279297 30.05904297 30 31 C30.49628906 30.50628906 30.99257813 30.01257813 31.50390625 29.50390625 C35.99124328 25.27201535 38.7691984 23.12980837 45 23 C45.495 23.99 45.495 23.99 46 25 C46.99 24.67 47.98 24.34 49 24 C51.61864161 23.8515056 54.1932477 23.7689973 56.8125 23.75 C57.86147461 23.7190625 57.86147461 23.7190625 58.93164062 23.6875 C63.70454648 23.65178134 66.98919677 24.39390205 71 27 C72.46270001 31.49257859 72.08092479 36.30636242 72 41 C73.485 41.495 73.485 41.495 75 42 C74.125 46.875 74.125 46.875 73 48 C71.33570949 48.09823937 69.66718069 48.12973631 68 48.125 C66.63875 48.12886719 66.63875 48.12886719 65.25 48.1328125 C63 48 63 48 62 47 C61.95936168 45.33382885 61.957279 43.66611905 62 42 C61.33613281 41.98582031 60.67226562 41.97164062 59.98828125 41.95703125 C55.4026695 41.70934127 52.71455278 41.52497755 48.9375 38.75 C47.01047012 36.01486081 46.28302808 34.30199431 46 31 C45.0925 31.78375 44.185 32.5675 43.25 33.375 C41.83463715 34.58486027 40.4177316 35.79291633 39 37 C38.01128906 37.84304687 37.02257812 38.68609375 36.00390625 39.5546875 C34.94043648 40.45351833 33.87663324 41.35195475 32.8125 42.25 C31.80832031 43.10078125 30.80414063 43.9515625 29.76953125 44.828125 C25.02974173 48.54508265 22.11300423 49.54580395 16 49 C13.5625 47.75 13.5625 47.75 12 46 C12 44.68 12 43.36 12 42 C14.97 40.68 17.94 39.36 21 38 C20.01 31.565 20.01 31.565 19 25 C15.88822118 23.96274039 14.91265239 24.06532647 11.8125 24.625 C6.75585495 25.29645615 3.59819666 24.09008939 -1 22 C-0.814375 22.78375 -0.62875 23.5675 -0.4375 24.375 C0 27 0 27 -1 29 C-3.96844435 29.35338623 -6.15598218 29.5417682 -8.734375 27.88671875 C-10.20348819 26.64496832 -11.60704814 25.32662082 -13 24 C-12.55478384 19.12079429 -10.09236038 16.19578278 -7.0625 12.5625 C-3.68498633 8.50661725 -1.37782964 5.22000599 0 0 Z M7 11 C5.515 13.475 5.515 13.475 4 16 C6.97 16.495 6.97 16.495 10 17 C9.65555119 14.52733235 9.65555119 14.52733235 9 12 C8.34 11.67 7.68 11.34 7 11 Z M53 25 C54.485 25.99 54.485 25.99 56 27 C56.6875 30.625 56.6875 30.625 57 34 C58.65 34 60.3 34 62 34 C62.12375 32.88625 62.2475 31.7725 62.375 30.625 C63 27 63 27 65 25 C61.04 25 57.08 25 53 25 Z " fill="#FCB61D" transform="translate(32,140)"/>
<path d="M0 0 C0.474375 0.45375 0.94875 0.9075 1.4375 1.375 C2.0975 0.715 2.7575 0.055 3.4375 -0.625 C9.32796371 -0.42188056 14.59120761 0.87020002 19.4375 4.375 C19.9325 5.86 19.9325 5.86 20.4375 7.375 C21.51 7.148125 22.5825 6.92125 23.6875 6.6875 C27.4375 6.375 27.4375 6.375 29.875 7.8125 C30.390625 8.328125 30.90625 8.84375 31.4375 9.375 C31.1075 11.355 30.7775 13.335 30.4375 15.375 C31.200625 15.601875 31.96375 15.82875 32.75 16.0625 C35.98486301 17.64231682 36.85391358 19.20782717 38.4375 22.375 C38.4375 20.395 38.4375 18.415 38.4375 16.375 C44.80239607 16.85536952 44.80239607 16.85536952 47.5 19.0625 C48.4375 21.375 48.4375 21.375 47.75 24.375 C47.0215509 26.04002652 46.27103873 27.69751871 45.4375 29.3125 C44.02663086 32.2224176 43.27620931 35.25979399 42.4375 38.375 C36.6875 36.75 36.6875 36.75 34.4375 33.375 C34.4375 32.385 34.4375 31.395 34.4375 30.375 C33.2309375 30.5296875 33.2309375 30.5296875 32 30.6875 C27.16794335 30.26363538 23.23235331 28.41088265 19.4375 25.375 C18.67578125 23.203125 18.67578125 23.203125 18.4375 21.375 C16.9834375 21.7153125 16.9834375 21.7153125 15.5 22.0625 C10.73349832 22.78528919 6.81474145 21.13185201 2.4375 19.375 C1.4375 14.625 1.4375 14.625 1.4375 12.375 C0.81875 13.014375 0.2 13.65375 -0.4375 14.3125 C-4.03464532 17.80384693 -6.9485623 17.81566803 -11.80859375 17.80859375 C-16.53752822 17.06403811 -19.91338418 14.33660125 -23.5625 11.375 C-22.9025 11.045 -22.2425 10.715 -21.5625 10.375 C-21.645 9.323125 -21.7275 8.27125 -21.8125 7.1875 C-21.52023806 2.73050535 -20.81344231 1.36928897 -17.5625 -1.625 C-11.68041972 -4.77122898 -5.47130232 -3.46960635 0 0 Z M-11.5625 3.375 C-13.3979799 4.70878575 -13.3979799 4.70878575 -14.5625 6.375 C-13.92270151 8.40741727 -13.92270151 8.40741727 -12.5625 10.375 C-10.10963404 11.36577298 -10.10963404 11.36577298 -7.5625 11.375 C-6.9025 10.715 -6.2425 10.055 -5.5625 9.375 C-5.88291397 6.77219432 -5.88291397 6.77219432 -6.5625 4.375 C-8.90783951 3.60543864 -8.90783951 3.60543864 -11.5625 3.375 Z M2.4375 5.375 C3.4375 7.375 3.4375 7.375 3.4375 7.375 Z M21.4375 11.375 C20.4475 12.86 20.4475 12.86 19.4375 14.375 C20.4275 15.86 20.4275 15.86 21.4375 17.375 C21.7675 15.395 22.0975 13.415 22.4375 11.375 C22.1075 11.375 21.7775 11.375 21.4375 11.375 Z M9.4375 13.375 C9.4375 14.035 9.4375 14.695 9.4375 15.375 C10.4275 15.045 11.4175 14.715 12.4375 14.375 C11.4475 14.045 10.4575 13.715 9.4375 13.375 Z M19.4375 18.375 C20.4375 20.375 20.4375 20.375 20.4375 20.375 Z " fill="#FBB221" transform="translate(114.5625,6.625)"/>
<path d="M0 0 C4.68695029 0.97276327 5.94051936 3.65069472 8.50390625 7.5234375 C10.58379452 10.01211591 12.2518816 10.73530761 15.3125 11.6875 C15.1875 14.4375 15.1875 14.4375 14.3125 17.6875 C11.37798486 20.28854751 9.60050627 21.6875 5.625 21.6875 C2.8688931 20.49566999 2.00628253 19.10858397 0.3125 16.6875 C-0.00203125 17.53054687 -0.3165625 18.37359375 -0.640625 19.2421875 C-1.06859375 20.33789062 -1.4965625 21.43359375 -1.9375 22.5625 C-2.35515625 23.65304688 -2.7728125 24.74359375 -3.203125 25.8671875 C-4.78967066 28.88162426 -5.51483143 29.65700726 -8.6875 30.6875 C-9.5125 30.831875 -10.3375 30.97625 -11.1875 31.125 C-13.74821573 31.51569568 -13.74821573 31.51569568 -15.625 33.1875 C-18.48951545 35.27078396 -20.11730393 35.62138526 -23.6875 35.6875 C-27.13071765 34.58443327 -30.40526795 33.19888353 -33.6875 31.6875 C-33.4915625 32.29980469 -33.295625 32.91210938 -33.09375 33.54296875 C-32.6875 35.6875 -32.6875 35.6875 -34.1875 38 C-36.6875 39.6875 -36.6875 39.6875 -40.4375 39.4375 C-41.51 39.19 -42.5825 38.9425 -43.6875 38.6875 C-44.00069144 37.29182165 -44.31301788 35.89594918 -44.625 34.5 C-44.80933594 33.68144531 -44.99367188 32.86289063 -45.18359375 32.01953125 C-45.56557489 30.25175805 -45.89017264 28.47146416 -46.1875 26.6875 C-46.3525 26.0275 -46.5175 25.3675 -46.6875 24.6875 C-47.3475 24.3575 -48.0075 24.0275 -48.6875 23.6875 C-48.6875 22.0375 -48.6875 20.3875 -48.6875 18.6875 C-45.29285554 16.59848803 -42.63908471 16.34388394 -38.6875 16.6875 C-36.6875 18.6875 -36.6875 18.6875 -36.6875 21.6875 C-35.945 20.945 -35.2025 20.2025 -34.4375 19.4375 C-33.53 18.53 -32.6225 17.6225 -31.6875 16.6875 C-31.06875 15.965625 -30.45 15.24375 -29.8125 14.5 C-26.99105018 12.09346928 -24.25483207 11.57933302 -20.6875 10.6875 C-19.98625 10.31625 -19.285 9.945 -18.5625 9.5625 C-16.02862188 8.38002354 -14.44496648 8.19257012 -11.6875 8.6875 C-10.03515625 11.21484375 -10.03515625 11.21484375 -8.6875 13.6875 C-8.42195313 12.91664063 -8.15640625 12.14578125 -7.8828125 11.3515625 C-7.35300781 9.84722656 -7.35300781 9.84722656 -6.8125 8.3125 C-6.29042969 6.81589844 -6.29042969 6.81589844 -5.7578125 5.2890625 C-4.37523019 1.92847923 -3.54846073 0.90774577 0 0 Z M-21.6875 16.6875 C-23.3375 19.3275 -24.9875 21.9675 -26.6875 24.6875 C-23.07613788 26.49318106 -22.142969 26.93601563 -18.4375 26.8125 C-17.2 26.77125 -15.9625 26.73 -14.6875 26.6875 C-15.27832014 25.20295194 -15.88562655 23.72495649 -16.5 22.25 C-16.83644531 21.42628906 -17.17289063 20.60257813 -17.51953125 19.75390625 C-18.57153088 17.35377512 -18.57153088 17.35377512 -21.6875 16.6875 Z " fill="#FDC627" transform="translate(152.6875,147.3125)"/>
<path d="M0 0 C3.4375 0.1875 3.4375 0.1875 7 1 C11.41911467 7.18963944 9.35930181 17.03632455 8.27734375 24.1328125 C4.67483318 45.33544793 4.67483318 45.33544793 0 53 C-2.15625 53.828125 -2.15625 53.828125 -4 54 C-10.47207529 44.29188707 -7.35825485 25.41494252 -5.70703125 14.3671875 C-3.40528634 3.40528634 -3.40528634 3.40528634 0 0 Z " fill="#9DCB45" transform="translate(105,36)"/>
<path d="M0 0 C3.74354708 -0.5672041 5.61436727 0.20837659 8.5625 2.375 C9.15546875 2.83390625 9.7484375 3.2928125 10.359375 3.765625 C12.03478483 5.10798913 12.03478483 5.10798913 14.3125 6.125 C16 7 16 7 18 10 C18.265625 12.33984375 18.265625 12.33984375 18.25 14.9375 C18.25515625 15.79214844 18.2603125 16.64679688 18.265625 17.52734375 C17.97750213 20.20942869 17.567314 21.80181748 16 24 C11.44430233 25.72965285 6.91863985 25.23993203 2.4375 23.5625 C1.303125 23.046875 0.16875 22.53125 -1 22 C-0.814375 22.78375 -0.62875 23.5675 -0.4375 24.375 C0 27 0 27 -1 29 C-3.96844435 29.35338623 -6.15598218 29.5417682 -8.734375 27.88671875 C-10.20348819 26.64496832 -11.60704814 25.32662082 -13 24 C-12.55478384 19.12079429 -10.09236038 16.19578278 -7.0625 12.5625 C-3.68498633 8.50661725 -1.37782964 5.22000599 0 0 Z M7 11 C5.515 13.475 5.515 13.475 4 16 C6.97 16.495 6.97 16.495 10 17 C9.65555119 14.52733235 9.65555119 14.52733235 9 12 C8.34 11.67 7.68 11.34 7 11 Z " fill="#FAAB19" transform="translate(32,140)"/>
<path d="M0 0 C1.875 1.5 1.875 1.5 3 4 C3.43474884 15.95559312 -6.02224534 27.02243524 -13 36 C-13.67160156 36.92167969 -14.34320313 37.84335938 -15.03515625 38.79296875 C-17 41 -17 41 -20.25 41.3125 C-21.1575 41.209375 -22.065 41.10625 -23 41 C-22.70066822 33.40024193 -20.91406116 27.34621479 -17.8125 20.4375 C-17.43802734 19.55642578 -17.06355469 18.67535156 -16.67773438 17.76757812 C-8.4509297 -1.03060118 -8.4509297 -1.03060118 0 0 Z " fill="#FDDB1B" transform="translate(142,52)"/>
<path d="M0 0 C0.33 0.66 0.66 1.32 1 2 C2.0725 1.773125 3.145 1.54625 4.25 1.3125 C8 1 8 1 10.4375 2.4375 C10.953125 2.953125 11.46875 3.46875 12 4 C11.67 5.98 11.34 7.96 11 10 C11.763125 10.226875 12.52625 10.45375 13.3125 10.6875 C16.54736301 12.26731682 17.41641358 13.83282717 19 17 C19 15.02 19 13.04 19 11 C25.36489607 11.48036952 25.36489607 11.48036952 28.0625 13.6875 C29 16 29 16 28.3125 19 C27.5840509 20.66502652 26.83353873 22.32251871 26 23.9375 C24.58913086 26.8474176 23.83870931 29.88479399 23 33 C17.25 31.375 17.25 31.375 15 28 C15 27.01 15 26.02 15 25 C14.195625 25.103125 13.39125 25.20625 12.5625 25.3125 C7.75394908 24.89069729 3.69447325 23.15002456 0 20 C-1.35021523 15.71271864 -1.0754432 11.45114871 -1 7 C-0.34 7 0.32 7 1 7 C0.67 4.69 0.34 2.38 0 0 Z M2 6 C1.01 7.485 1.01 7.485 0 9 C0.99 10.485 0.99 10.485 2 12 C2.33 10.02 2.66 8.04 3 6 C2.67 6 2.34 6 2 6 Z M0 13 C1 15 1 15 1 15 Z " fill="#FDB813" transform="translate(134,12)"/>
<path d="M0 0 C1 1 1 1 1.125 3.9375 C1 7 1 7 0 9 C1.65 9 3.3 9 5 9 C6.13136404 14.43054739 6.24386425 18.83506922 4 24 C1.46964536 27.75215446 -0.64580013 30.54860004 -5 32 C-7.90803371 29.25813965 -10.29846754 26.65323815 -12.5 23.3125 C-14.59426438 20.25420916 -16.31609916 18.94728879 -20 18 C-19.55597798 12.93074858 -18.20815864 10.5054012 -14.75 6.8125 C-13.59757813 5.55373047 -13.59757813 5.55373047 -12.421875 4.26953125 C-8.3371399 0.44173917 -5.57939724 -1.85979908 0 0 Z M-7 8 C-7.66 9.32 -8.32 10.64 -9 12 C-8.01 11.67 -7.02 11.34 -6 11 C-6.33 10.01 -6.66 9.02 -7 8 Z M-1 15 C-1.99 15.66 -2.98 16.32 -4 17 C-3.67 18.32 -3.34 19.64 -3 21 C-2.01 20.34 -1.02 19.68 0 19 C-0.33 17.68 -0.66 16.36 -1 15 Z " fill="#F8991B" transform="translate(26,31)"/>
<path d="M0 0 C5.39256198 0.47933884 5.39256198 0.47933884 7.75 2.5 C11.77785064 10.55570129 11.30465236 19.53624188 11.25 28.3125 C11.25773437 29.57384766 11.26546875 30.83519531 11.2734375 32.13476562 C11.27085938 33.34455078 11.26828125 34.55433594 11.265625 35.80078125 C11.26336914 36.89559814 11.26111328 37.99041504 11.25878906 39.1184082 C11.00502096 41.94409213 10.46267442 43.60154803 9 46 C7.125 45.74609375 7.125 45.74609375 5 45 C-1.69093195 35.1726937 -4.91324496 15.47946977 -3 4 C-1.47265625 1.6484375 -1.47265625 1.6484375 0 0 Z " fill="#1799D7" transform="translate(74,46)"/>
<path d="M0 0 C1.65 0 3.3 0 5 0 C4.67 2.64 4.34 5.28 4 8 C3.01 8.33 2.02 8.66 1 9 C1.33 9.66 1.66 10.32 2 11 C4.80980673 11.69227032 4.80980673 11.69227032 8.0625 12.125 C9.16722656 12.29257813 10.27195313 12.46015625 11.41015625 12.6328125 C12.26480469 12.75398437 13.11945313 12.87515625 14 13 C14 14.65 14 16.3 14 18 C10.50972384 20.04864035 8.44380631 21.23884128 4.37890625 20.56640625 C1.13476602 19.58233468 -1.96579592 18.51710204 -5 17 C-4.7525 17.5775 -4.505 18.155 -4.25 18.75 C-4 21 -4 21 -5.5 23.3125 C-8 25 -8 25 -11.75 24.75 C-12.8225 24.5025 -13.895 24.255 -15 24 C-15.31319144 22.60432165 -15.62551788 21.20844918 -15.9375 19.8125 C-16.12183594 18.99394531 -16.30617188 18.17539063 -16.49609375 17.33203125 C-16.87807489 15.56425805 -17.20267264 13.78396416 -17.5 12 C-17.665 11.34 -17.83 10.68 -18 10 C-18.66 9.67 -19.32 9.34 -20 9 C-20 7.35 -20 5.7 -20 4 C-16.60535554 1.91098803 -13.95158471 1.65638394 -10 2 C-8 4 -8 4 -8 7 C-7.236875 6.175 -6.47375 5.35 -5.6875 4.5 C-3 2 -3 2 0 2 C0 1.34 0 0.68 0 0 Z " fill="#FDBE1D" transform="translate(124,162)"/>
<path d="M0 0 C5.87500378 1.85526435 9.05075892 4.77520582 11.9375 10.0625 C13.5117955 13.54562879 14.08783354 16.272554 13.5625 20.125 C12.5625 22.5 12.5625 22.5 11.5625 24.125 C10.5725 24.125 9.5825 24.125 8.5625 24.125 C8.5625 25.445 8.5625 26.765 8.5625 28.125 C3.7430208 28.02664328 1.31665431 27.32958114 -2.1875 23.9375 C-6.83753698 18.785886 -9.12037736 14.26165293 -8.84765625 7.25390625 C-8.4375 5.125 -8.4375 5.125 -6.375 2 C-3.4375 0.125 -3.4375 0.125 0 0 Z " fill="#FCC322" transform="translate(167.4375,32.875)"/>
<path d="M0 0 C2.0625 2.3125 2.0625 2.3125 3 5 C2.8203125 7.01171875 2.8203125 7.01171875 2 9 C-5.19576462 14.3929042 -17.03500924 18.50390951 -25.92578125 17.6015625 C-26.94027344 17.40304688 -27.95476562 17.20453125 -29 17 C-29.33 15.35 -29.66 13.7 -30 12 C-22.02012465 4.55211634 -11.4496123 -3.56587502 0 0 Z " fill="#FAA10A" transform="translate(164,113)"/>
<path d="M0 0 C4.49911539 1.3747297 6.29851789 3.19810723 9 7 C10.115088 9.25685274 11.15428167 11.55239123 12.125 13.875 C12.62257813 15.04804687 13.12015625 16.22109375 13.6328125 17.4296875 C15.61922325 22.61705729 17.33952521 27.39783398 17 33 C15.515 33.495 15.515 33.495 14 34 C6.97707521 27.63547441 -1.25011972 18.41275092 -2.23828125 8.64453125 C-2.30717496 6.36378679 -2.35361348 4.25485997 -2 2 C-1.34 1.34 -0.68 0.68 0 0 Z " fill="#D85AA8" transform="translate(51,68)"/>
<path d="M0 0 C4.33239451 -0.1272674 7.86274183 -0.00452609 11.9375 1.5 C12.70964844 1.7784375 13.48179687 2.056875 14.27734375 2.34375 C14.84582031 2.5603125 15.41429687 2.776875 16 3 C16.33 5.64 16.66 8.28 17 11 C16.34 11 15.68 11 15 11 C15 13.97 15 16.94 15 20 C9.70867802 21.07986163 6.06864418 20.92608479 1 19 C-0.65497356 15.69005287 -0.10084335 12.00877 -0.0625 8.375 C-0.05798828 7.57320312 -0.05347656 6.77140625 -0.04882812 5.9453125 C-0.03703168 3.96350994 -0.01909605 1.98174567 0 0 Z M6 12 C6 12.66 6 13.32 6 14 C6.99 13.67 7.98 13.34 9 13 C8.01 12.67 7.02 12.34 6 12 Z " fill="#FCB314" transform="translate(118,8)"/>
<path d="M0 0 C5.23443337 1.5994102 7.46350425 4.20278978 10.06640625 8.94140625 C12.89532107 14.77669549 14.09182726 20.60694189 15 27 C14.01 27 13.02 27 12 27 C10.4933028 24.2118978 8.99580196 21.41896042 7.5 18.625 C7.07074219 17.8309375 6.64148437 17.036875 6.19921875 16.21875 C5.79316406 15.45820312 5.38710938 14.69765625 4.96875 13.9140625 C4.40317383 12.8614624 4.40317383 12.8614624 3.82617188 11.78759766 C3 10 3 10 3 8 C1.68 8.33 0.36 8.66 -1 9 C-1.09765625 2.84765625 -1.09765625 2.84765625 -1 1 C-0.67 0.67 -0.34 0.34 0 0 Z " fill="#D33E9C" transform="translate(51,68)"/>
<path d="M0 0 C2.31 0.33 4.62 0.66 7 1 C7.80981029 3.32627033 8.16865034 4.54809162 7.29296875 6.89453125 C6.92816406 7.52746094 6.56335938 8.16039062 6.1875 8.8125 C4.18907364 12.49817907 3.01533177 15.93867291 2 20 C-0.4375 19.375 -0.4375 19.375 -3 18 C-4.4464992 14.11253339 -4.12257477 12.31758009 -2.625 8.4375 C-2.08875 7.303125 -1.5525 6.16875 -1 5 C-0.30859478 2.22111387 -0.30859478 2.22111387 0 0 Z " fill="#FDBD18" transform="translate(155,25)"/>
<path d="M0 0 C0.33 0 0.66 0 1 0 C1 13.53 1 27.06 1 41 C6.57647158 35.42352842 8.32183775 27.55173013 10 20 C10.33 20 10.66 20 11 20 C10.60529849 27.76246302 8.78242516 35.14881481 5 42 C2.83203125 42.875 2.83203125 42.875 1 43 C-2.64487814 37.53268279 -2.19306392 30.89155034 -2.1875 24.5 C-2.1884668 23.33718506 -2.1884668 23.33718506 -2.18945312 22.15087891 C-2.12214749 14.65394891 -1.22111356 7.39209813 0 0 Z " fill="#CBE08B" transform="translate(100,47)"/>
<path d="M0 0 C0.33 0 0.66 0 1 0 C1.05802751 4.58328022 1.09360593 9.16646604 1.125 13.75 C1.14175781 15.05195312 1.15851563 16.35390625 1.17578125 17.6953125 C1.18222656 18.94570312 1.18867187 20.19609375 1.1953125 21.484375 C1.20578613 22.63647461 1.21625977 23.78857422 1.22705078 24.97558594 C1.00758762 27.89892966 0.52728122 29.53732509 -1 32 C-2.8671875 31.78515625 -2.8671875 31.78515625 -5 31 C-8.83473336 24.57118231 -11.46702263 15.47236213 -11 8 C-10.01 8.495 -10.01 8.495 -9 9 C-8.47265625 11.2578125 -8.47265625 11.2578125 -8.0625 14.125 C-7.2891072 18.88909967 -5.99958805 22.63726243 -4 27 C-4 27.99 -4 28.98 -4 30 C-3.34 29.67 -2.68 29.34 -2 29 C-0.90168468 22.71559978 -0.70529603 16.3656434 -0.4375 10 C-0.39431641 9.03449219 -0.35113281 8.06898437 -0.30664062 7.07421875 C-0.20158287 4.71625575 -0.09943086 2.35820584 0 0 Z " fill="#58B6E0" transform="translate(84,60)"/>
<path d="M0 0 C2.3431213 0.25561323 4.67843403 0.59270772 7 1 C7.33 1.66 7.66 2.32 8 3 C5.03 2.505 5.03 2.505 2 2 C2.061875 2.680625 2.12375 3.36125 2.1875 4.0625 C2 7 2 7 0.5 10.4375 C-0.99700976 13.99289819 -1.2778626 16.20254452 -1 20 C-2.5 18.6875 -2.5 18.6875 -4 17 C-4 16.01 -4 15.02 -4 14 C-4.94875 14.04125 -5.8975 14.0825 -6.875 14.125 C-10 14 -10 14 -12 12 C-8.7 12 -5.4 12 -2 12 C-2.33 9.03 -2.66 6.06 -3 3 C-2.01 3.99 -1.02 4.98 0 6 C0 4.02 0 2.04 0 0 Z " fill="#FBCD55" transform="translate(153,23)"/>
<path d="M0 0 C3.10190545 4.65285818 4.33846504 9.41532676 4 15 C3.01 15.33 2.02 15.66 1 16 C-3.54075781 11.85989729 -6.71842138 7.17609824 -10 2 C-6.84930578 3.36689554 -4.99108226 4.85657885 -2.8125 7.5 C-2.30332031 8.1084375 -1.79414062 8.716875 -1.26953125 9.34375 C0 11 0 11 1 13 C0.67 8.71 0.34 4.42 0 0 Z " fill="#E6A1C7" transform="translate(64,86)"/>
<path d="M0 0 C0.86882812 0.00386719 1.73765625 0.00773437 2.6328125 0.01171875 C4.875 0.3125 4.875 0.3125 6.875 2.3125 C6.17632812 2.30089844 5.47765625 2.28929688 4.7578125 2.27734375 C3.84773438 2.26832031 2.93765625 2.25929688 2 2.25 C1.09507813 2.23839844 0.19015625 2.22679688 -0.7421875 2.21484375 C-3.1418585 2.15000743 -3.1418585 2.15000743 -5.125 3.3125 C-4.01125 3.43625 -2.8975 3.56 -1.75 3.6875 C1.875 4.3125 1.875 4.3125 3.875 6.3125 C3.5 8.4375 3.5 8.4375 2.875 10.3125 C2.215 8.9925 1.555 7.6725 0.875 6.3125 C-3.34378192 6.11627759 -6.29510894 6.51019832 -10.125 8.3125 C-9.80453068 5.34815877 -9.59310442 3.75942322 -7.3984375 1.6640625 C-4.70714347 0.06408358 -3.10762145 -0.06029713 0 0 Z " fill="#F7B14B" transform="translate(97.125,117.6875)"/>
<path d="M0 0 C2.0625 2.3125 2.0625 2.3125 3 5 C2.6875 7.3125 2.6875 7.3125 2 9 C1.67 9 1.34 9 1 9 C0.67 6.69 0.34 4.38 0 2 C-6.01472363 1.49877303 -10.00878872 2.00547222 -15.17578125 5.22265625 C-17.49267282 6.20993981 -18.66979234 5.81788746 -21 5 C-19.58671871 4.18162558 -18.16921654 3.37053781 -16.75 2.5625 C-15.56664062 1.88380859 -15.56664062 1.88380859 -14.359375 1.19140625 C-9.58309223 -1.2204584 -5.13448352 -1.59908703 0 0 Z " fill="#FBCC53" transform="translate(164,113)"/>
<path d="M0 0 C0.74507812 0.00451172 1.49015625 0.00902344 2.2578125 0.01367188 C4.0885764 0.02540754 5.91929873 0.0433415 7.75 0.0625 C7.75 0.3925 7.75 0.7225 7.75 1.0625 C3.295 1.5575 3.295 1.5575 -1.25 2.0625 C-0.92 2.3925 -0.59 2.7225 -0.25 3.0625 C-0.20907063 5.39547433 -0.20758277 7.72955225 -0.25 10.0625 C1.4 10.0625 3.05 10.0625 4.75 10.0625 C4.75 10.3925 4.75 10.7225 4.75 11.0625 C2.77 11.0625 0.79 11.0625 -1.25 11.0625 C-1.58 8.7525 -1.91 6.4425 -2.25 4.0625 C-6.2600934 3.88385369 -6.2600934 3.88385369 -10.25 4.0625 C-10.91 4.7225 -11.57 5.3825 -12.25 6.0625 C-12.25 4.4125 -12.25 2.7625 -12.25 1.0625 C-8.15996141 -0.08732602 -4.21822949 -0.04844256 0 0 Z " fill="#F8C665" transform="translate(89.25,163.9375)"/>
<path d="M0 0 C3.24536405 0.53889809 6.13379679 1.41037349 9.125 2.8125 C5.74225734 3.94008089 4.35721777 3.63000262 0.9375 2.875 C0.03644531 2.68035156 -0.86460938 2.48570313 -1.79296875 2.28515625 C-2.48003906 2.12917969 -3.16710937 1.97320312 -3.875 1.8125 C-3.71 2.740625 -3.545 3.66875 -3.375 4.625 C-2.63799718 9.66983621 -2.79223185 14.72685711 -2.875 19.8125 C-3.865 19.4825 -4.855 19.1525 -5.875 18.8125 C-5.92947047 17.39626784 -5.96800508 15.97941809 -6 14.5625 C-6.02320312 13.77359375 -6.04640625 12.9846875 -6.0703125 12.171875 C-5.8578378 9.60518059 -5.16154105 8.0208933 -3.875 5.8125 C-4.535 5.8125 -5.195 5.8125 -5.875 5.8125 C-6.205 4.8225 -6.535 3.8325 -6.875 2.8125 C-4.83322369 -0.37777548 -3.87771221 -0.18763124 0 0 Z " fill="#FBD376" transform="translate(121.875,6.1875)"/>
<path d="M0 0 C1.04973814 4.19895255 0.72795155 6.79405774 0 11 C0.66 11 1.32 11 2 11 C1.88610125 12.79240663 1.75852313 14.58394835 1.625 16.375 C1.55539063 17.37273438 1.48578125 18.37046875 1.4140625 19.3984375 C1 22 1 22 -1 24 C-1 20.04 -1 16.08 -1 12 C-2.65 12 -4.3 12 -6 12 C-5.67 10.02 -5.34 8.04 -5 6 C-4.67 7.32 -4.34 8.64 -4 10 C-3.34 10 -2.68 10 -2 10 C-1.34 6.7 -0.68 3.4 0 0 Z " fill="#F8C066" transform="translate(32,28)"/>
<path d="M0 0 C1.65 0 3.3 0 5 0 C4.01 0.66 3.02 1.32 2 2 C1.31264581 3.65824197 0.64934351 5.32650808 0 7 C-1.27869555 8.97398625 -2.61543729 10.91127142 -4 12.8125 C-4.70125 13.78832031 -5.4025 14.76414063 -6.125 15.76953125 C-6.74375 16.50558594 -7.3625 17.24164063 -8 18 C-8.66 18 -9.32 18 -10 18 C-8.63504051 15.04696265 -7.03401634 12.65735035 -5 10.125 C-2.50943268 6.88118793 -1.00370669 4.01482676 0 0 Z " fill="#FAC765" transform="translate(32,140)"/>
<path d="M0 0 C0.33 0.66 0.66 1.32 1 2 C2.093125 1.773125 3.18625 1.54625 4.3125 1.3125 C8 1 8 1 9.9375 2.4375 C10.288125 2.953125 10.63875 3.46875 11 4 C8.69 3.67 6.38 3.34 4 3 C4.04125 4.11375 4.0825 5.2275 4.125 6.375 C4 10 4 10 2 12 C2.04125 11.236875 2.0825 10.47375 2.125 9.6875 C2.22080824 6.77281584 2.22080824 6.77281584 0 4 C0 2.68 0 1.36 0 0 Z " fill="#FBD169" transform="translate(134,12)"/>
<path d="M0 0 C0.66 1.32 1.32 2.64 2 4 C6.29 4 10.58 4 15 4 C11.92050484 6.05299677 10.57483032 6.38826122 7 6.75 C6.13375 6.84796875 5.2675 6.9459375 4.375 7.046875 C2 7 2 7 -1 5 C-0.67 3.35 -0.34 1.7 0 0 Z " fill="#F5AE57" transform="translate(135,124)"/>
<path d="M0 0 C0.75 1.75 0.75 1.75 1 4 C-0.9375 6.25 -0.9375 6.25 -3 8 C-2.67 6.02 -2.34 4.04 -2 2 C-3.65 2 -5.3 2 -7 2 C-7 2.66 -7 3.32 -7 4 C-7.66 4 -8.32 4 -9 4 C-8.67 3.01 -8.34 2.02 -8 1 C-5.29120665 -0.35439668 -2.99066732 -0.06501451 0 0 Z " fill="#FBD56C" transform="translate(131,160)"/>
<path d="M0 0 C0.99 0.495 0.99 0.495 2 1 C2.6328125 3.94140625 2.6328125 3.94140625 3.125 7.5625 C3.29257813 8.76003906 3.46015625 9.95757812 3.6328125 11.19140625 C3.75398437 12.11824219 3.87515625 13.04507813 4 14 C3.01 13.67 2.02 13.34 1 13 C-0.10228696 8.59085217 -0.07654536 4.51617599 0 0 Z M1 6 C2 8 2 8 2 8 Z " fill="#FBCE5E" transform="translate(133,19)"/>
<path d="M0 0 C0.66 0.33 1.32 0.66 2 1 C-6.23529412 11.11764706 -6.23529412 11.11764706 -10 13 C-8.65515286 8.95838045 -6.9494838 6.61321846 -3.875 3.6875 C-3.15054687 2.99011719 -2.42609375 2.29273438 -1.6796875 1.57421875 C-1.12539062 1.05472656 -0.57109375 0.53523438 0 0 Z " fill="#F7B250" transform="translate(17,32)"/>
<path d="M0 0 C0.66 0 1.32 0 2 0 C2.66 1.65 3.32 3.3 4 5 C4.99 5 5.98 5 7 5 C7.66 6.65 8.32 8.3 9 10 C5.01177189 8.22745417 2.17995472 6.87547506 0 3 C0 2.01 0 1.02 0 0 Z " fill="#FBD259" transform="translate(165,45)"/>
<path d="M0 0 C0.66 0.33 1.32 0.66 2 1 C0.90344712 2.31886772 -0.20253423 3.62990057 -1.3125 4.9375 C-1.92738281 5.66839844 -2.54226562 6.39929687 -3.17578125 7.15234375 C-5 9 -5 9 -8 10 C-6.34908222 5.70761377 -3.26245434 3.1206085 0 0 Z " fill="#FBC03C" transform="translate(49,42)"/>
<path d="M0 0 C0.99 0.33 1.98 0.66 3 1 C4.63915164 4.98079685 5.19637389 7.22853113 4.125 11.4375 C3.75375 12.283125 3.3825 13.12875 3 14 C2.67 14 2.34 14 2 14 C2 10.04 2 6.08 2 2 C1.34 2 0.68 2 0 2 C0 1.34 0 0.68 0 0 Z " fill="#F9C162" transform="translate(50,20)"/>
<path d="M0 0 C0.66 0.33 1.32 0.66 2 1 C-0.97088618 4.99926986 -4.12948725 7.92118304 -8 11 C-6.52670958 5.99081256 -3.72484762 3.48192278 0 0 Z " fill="#F8BA59" transform="translate(70,100)"/>
<path d="M0 0 C2 2 2 2 2 6 C2.99 6.33 3.98 6.66 5 7 C4.360625 7.28875 3.72125 7.5775 3.0625 7.875 C0.84793921 8.82823451 0.84793921 8.82823451 0 11 C-0.66 10.67 -1.32 10.34 -2 10 C-1.34 6.7 -0.68 3.4 0 0 Z " fill="#FACE70" transform="translate(50,152)"/>
<path d="M0 0 C3.36179774 1.44077046 5.59156268 3.24750021 8 6 C8 6.66 8 7.32 8 8 C6.25 7.9375 6.25 7.9375 4 7 C2.40498463 4.75835678 1.25456982 2.46433357 0 0 Z " fill="#E18BBC" transform="translate(54,88)"/>
<path d="M0 0 C0.66 0.33 1.32 0.66 2 1 C0.38405168 3.04119788 -1.2856382 5.04072937 -3 7 C-3.66 7 -4.32 7 -5 7 C-3.70700306 4.11562221 -2.34058637 2.12780579 0 0 Z " fill="#F7AD3F" transform="translate(80,112)"/>
<path d="M0 0 C0.66 0.33 1.32 0.66 2 1 C0.38405168 3.04119788 -1.2856382 5.04072937 -3 7 C-3.66 7 -4.32 7 -5 7 C-3.70700306 4.11562221 -2.34058637 2.12780579 0 0 Z " fill="#F8B44E" transform="translate(38,21)"/>
</svg>
